<svg width="30" height="31" viewBox="0 0 30 31" fill="none" xmlns="http://www.w3.org/2000/svg">
<path d="M26.6666 3.83329V21.3333H9.16663V3.83329H26.6666ZM26.6666 0.916626H9.16663C7.56246 0.916626 6.24996 2.22913 6.24996 3.83329V21.3333C6.24996 22.9375 7.56246 24.25 9.16663 24.25H26.6666C28.2708 24.25 29.5833 22.9375 29.5833 21.3333V3.83329C29.5833 2.22913 28.2708 0.916626 26.6666 0.916626ZM15.6854 18.4166L10.625 13.3125L12.6666 11.2562L15.6854 14.2895L23.1666 6.74996L25.2083 8.80621L15.6854 18.4166ZM3.33329 6.74996H0.416626V27.1666C0.416626 28.7708 1.72913 30.0833 3.33329 30.0833H23.75V27.1666H3.33329V6.74996Z" fill="#ce2824"/>
</svg>
