<svg width="18" height="14" viewBox="0 0 18 14" fill="none" xmlns="http://www.w3.org/2000/svg">
<path d="M2.33342 13.6666C1.87508 13.6666 1.48258 13.5033 1.15592 13.1766C0.829249 12.8499 0.666194 12.4577 0.666749 11.9999V1.99992C0.666749 1.54159 0.830083 1.14909 1.15675 0.82242C1.48342 0.495753 1.87564 0.332698 2.33342 0.333253H15.6667C16.1251 0.333253 16.5176 0.496587 16.8442 0.823253C17.1709 1.14992 17.334 1.54214 17.3334 1.99992V11.9999C17.3334 12.4583 17.1701 12.8508 16.8434 13.1774C16.5167 13.5041 16.1245 13.6671 15.6667 13.6666H2.33342ZM9.00008 7.83325L2.33342 3.66659V11.9999H15.6667V3.66659L9.00008 7.83325ZM9.00008 6.16659L15.6667 1.99992H2.33342L9.00008 6.16659ZM2.33342 3.66659V1.99992V11.9999V3.66659Z" fill="#c92021"/>
</svg>
